<?xml version="1.0" encoding="UTF-8"?>
<svg id="_Слой_1" data-name=" Слой 1" xmlns="http://www.w3.org/2000/svg" viewBox="0 0 148.88 77.4">
  <defs>
    <style>
      .cls-1 {
        fill: #65c1ce;
      }

      .cls-2 {
        isolation: isolate;
      }
    </style>
  </defs>
  <g class="cls-2">
    <g class="cls-2">
      <path class="cls-1" d="M6.35,53.51v-5.63h2.56c1.62,0,2.67-.21,3.12-.62.46-.42.69-1.45.69-3.1v-24.27c0-1.67-.23-2.7-.69-3.11-.46-.41-1.5-.61-3.12-.61h-2.56v-5.63h24.7v5.63h-2.56c-1.64,0-2.7.21-3.17.64-.47.43-.7,1.45-.7,3.08v24.27c0,1.63.23,2.65.7,3.08.47.43,1.52.64,3.17.64h2.56v5.63H6.35Z"/>
      <path class="cls-1" d="M46.46,53.51l-8.16-30.36c-.81-3.02-1.58-4.93-2.31-5.72-.73-.79-1.8-1.27-3.2-1.44v-5.44h18.85v5.44h-.3c-1.1,0-1.92.15-2.48.44-.56.29-.84.72-.84,1.28,0,.25.05.61.15,1.09.1.48.28,1.17.55,2.06l5.73,21.83,5.73-19.01c-.55-3.04-1.23-5.09-2.04-6.13-.81-1.04-2.04-1.56-3.69-1.56v-5.44h19.58v5.41c-.18,0-.38,0-.58-.02-.2-.01-.49-.02-.85-.02-1.08,0-1.81.16-2.21.47s-.59.88-.59,1.69c0,.23.02.5.06.8.04.3.1.62.18.95l5.54,22.86,5.82-22.67c.12-.46.21-.84.27-1.16.06-.31.09-.57.09-.78,0-.77-.32-1.31-.94-1.63-.63-.31-1.77-.47-3.41-.47v-5.44h15.32v5.44c-1.38.06-2.45.45-3.2,1.16-.75.71-1.36,1.99-1.83,3.85l-8.38,32.52h-11.15l-4.99-18.26-5.12,18.26h-11.6Z"/>
      <path class="cls-1" d="M94.37,53.51v-5.63h2.32c1.62,0,2.67-.21,3.12-.62.46-.42.69-1.45.69-3.1v-24.27c0-1.67-.23-2.7-.69-3.11-.46-.41-1.5-.61-3.12-.61h-2.32v-5.63h22.9v5.63h-1.46c-1.64,0-2.7.21-3.17.64-.47.43-.7,1.45-.7,3.08v11.32l13.98-12.41c.32-.29.56-.57.72-.83.15-.26.23-.52.23-.77,0-.35-.19-.61-.56-.78-.38-.17-.96-.25-1.75-.25h-2.92v-5.63h20.89v5.63h-2.01c-1.52,0-3.64,1.19-6.37,3.56l-.06.03-7.22,6.47,11.36,18.89c.61,1.02,1.2,1.74,1.77,2.14.57.41,1.25.61,2.04.61h1.8v5.63h-22.57v-5.63h1.8c1.04,0,1.77-.1,2.21-.3.44-.2.66-.53.66-.98,0-.17-.03-.33-.09-.5-.06-.17-.19-.43-.4-.78l-6.85-11.66-6.64,5.82v4.69c0,1.63.23,2.65.7,3.08.47.43,1.52.64,3.17.64h1.46v5.63h-22.9Z"/>
    </g>
  </g>
  <g class="cls-2">
    <g class="cls-2">
      <path class="cls-1" d="M2.88,60.23v12.53h-1.54v-12.53h1.54Z"/>
      <path class="cls-1" d="M5.69,66.19c0-.93-.02-1.69-.07-2.43h1.38l.09,1.49h.04c.42-.85,1.41-1.69,2.82-1.69,1.18,0,3.02.74,3.02,3.83v5.37h-1.55v-5.19c0-1.45-.51-2.66-1.98-2.66-1.02,0-1.82.76-2.08,1.67-.07.2-.11.48-.11.76v5.41h-1.55v-6.56Z"/>
      <path class="cls-1" d="M15.28,71.08c.46.32,1.27.65,2.05.65,1.13,0,1.66-.59,1.66-1.34,0-.78-.44-1.21-1.59-1.65-1.54-.58-2.26-1.47-2.26-2.55,0-1.45,1.11-2.64,2.95-2.64.87,0,1.62.26,2.1.56l-.39,1.19c-.34-.22-.95-.52-1.75-.52-.92,0-1.43.56-1.43,1.23,0,.74.51,1.08,1.62,1.52,1.48.59,2.24,1.38,2.24,2.71,0,1.58-1.17,2.69-3.2,2.69-.94,0-1.8-.24-2.4-.61l.39-1.25Z"/>
      <path class="cls-1" d="M24.35,61.18v2.58h2.22v1.25h-2.22v4.85c0,1.12.3,1.75,1.17,1.75.41,0,.71-.06.9-.11l.07,1.23c-.3.13-.78.22-1.38.22-.72,0-1.31-.24-1.68-.69-.44-.48-.6-1.28-.6-2.34v-4.91h-1.32v-1.25h1.32v-2.16l1.52-.43Z"/>
      <path class="cls-1" d="M33.06,72.75l-.12-1.13h-.05c-.48.71-1.4,1.34-2.61,1.34-1.73,0-2.61-1.28-2.61-2.58,0-2.17,1.84-3.36,5.14-3.35v-.19c0-.74-.19-2.08-1.94-2.08-.79,0-1.62.26-2.22.67l-.35-1.08c.71-.48,1.73-.8,2.81-.8,2.61,0,3.25,1.88,3.25,3.68v3.36c0,.78.04,1.54.14,2.16h-1.41ZM32.83,68.16c-1.69-.04-3.62.28-3.62,2.03,0,1.06.67,1.56,1.47,1.56,1.11,0,1.82-.74,2.07-1.5.05-.17.09-.35.09-.52v-1.56Z"/>
      <path class="cls-1" d="M36.84,66.19c0-.93-.02-1.69-.07-2.43h1.38l.09,1.49h.04c.42-.85,1.41-1.69,2.82-1.69,1.18,0,3.02.74,3.02,3.83v5.37h-1.55v-5.19c0-1.45-.51-2.66-1.98-2.66-1.02,0-1.82.76-2.08,1.67-.07.2-.11.48-.11.76v5.41h-1.55v-6.56Z"/>
      <path class="cls-1" d="M48.44,61.18v2.58h2.22v1.25h-2.22v4.85c0,1.12.3,1.75,1.17,1.75.41,0,.71-.06.9-.11l.07,1.23c-.3.13-.78.22-1.38.22-.72,0-1.31-.24-1.68-.69-.44-.48-.6-1.28-.6-2.34v-4.91h-1.32v-1.25h1.32v-2.16l1.52-.43Z"/>
      <path class="cls-1" d="M57.52,72.75l-3.02-12.53h1.62l1.41,6.34c.35,1.56.67,3.12.88,4.33h.04c.19-1.25.56-2.73.97-4.35l1.59-6.32h1.61l1.45,6.36c.34,1.49.65,2.97.83,4.29h.04c.25-1.38.58-2.77.95-4.33l1.57-6.32h1.57l-3.37,12.53h-1.61l-1.5-6.52c-.37-1.6-.62-2.83-.78-4.09h-.04c-.21,1.25-.48,2.47-.92,4.09l-1.69,6.52h-1.61Z"/>
      <path class="cls-1" d="M70.75,68.55c.04,2.21,1.38,3.12,2.93,3.12,1.11,0,1.78-.2,2.37-.46l.27,1.17c-.55.26-1.48.56-2.84.56-2.63,0-4.2-1.82-4.2-4.53s1.52-4.85,4.01-4.85c2.79,0,3.53,2.58,3.53,4.24,0,.33-.04.59-.05.76h-6ZM75.3,67.38c.02-1.04-.41-2.66-2.15-2.66-1.57,0-2.26,1.52-2.38,2.66h4.54Z"/>
      <path class="cls-1" d="M78.73,59.56h1.55v13.2h-1.55v-13.2Z"/>
      <path class="cls-1" d="M82.9,59.56h1.55v13.2h-1.55v-13.2Z"/>
      <path class="cls-1" d="M87.06,66.19c0-.93-.02-1.69-.07-2.43h1.38l.09,1.49h.04c.42-.85,1.41-1.69,2.83-1.69,1.18,0,3.02.74,3.02,3.83v5.37h-1.55v-5.19c0-1.45-.51-2.66-1.98-2.66-1.02,0-1.82.76-2.08,1.67-.07.2-.11.48-.11.76v5.41h-1.55v-6.56Z"/>
      <path class="cls-1" d="M97.73,68.55c.04,2.21,1.38,3.12,2.93,3.12,1.11,0,1.78-.2,2.37-.46l.26,1.17c-.55.26-1.48.56-2.84.56-2.63,0-4.2-1.82-4.2-4.53s1.52-4.85,4.01-4.85c2.79,0,3.53,2.58,3.53,4.24,0,.33-.04.59-.05.76h-6ZM102.29,67.38c.02-1.04-.41-2.66-2.15-2.66-1.57,0-2.26,1.52-2.38,2.66h4.54Z"/>
      <path class="cls-1" d="M105.5,71.08c.46.32,1.27.65,2.05.65,1.13,0,1.66-.59,1.66-1.34,0-.78-.44-1.21-1.59-1.65-1.54-.58-2.26-1.47-2.26-2.55,0-1.45,1.11-2.64,2.95-2.64.87,0,1.62.26,2.1.56l-.39,1.19c-.34-.22-.95-.52-1.75-.52-.92,0-1.43.56-1.43,1.23,0,.74.51,1.08,1.62,1.52,1.48.59,2.24,1.38,2.24,2.71,0,1.58-1.17,2.69-3.2,2.69-.94,0-1.8-.24-2.4-.61l.39-1.25Z"/>
      <path class="cls-1" d="M112.5,71.08c.46.32,1.27.65,2.05.65,1.13,0,1.66-.59,1.66-1.34,0-.78-.44-1.21-1.59-1.65-1.54-.58-2.26-1.47-2.26-2.55,0-1.45,1.11-2.64,2.95-2.64.87,0,1.62.26,2.1.56l-.39,1.19c-.34-.22-.95-.52-1.75-.52-.92,0-1.43.56-1.43,1.23,0,.74.51,1.08,1.62,1.52,1.48.59,2.24,1.38,2.24,2.71,0,1.58-1.17,2.69-3.2,2.69-.94,0-1.8-.24-2.4-.61l.39-1.25Z"/>
      <path class="cls-1" d="M123.5,60.23h1.54v6.04h.05c.32-.48.64-.93.94-1.34l3.64-4.7h1.91l-4.31,5.32,4.64,7.21h-1.82l-3.92-6.15-1.13,1.38v4.78h-1.54v-12.53Z"/>
      <path class="cls-1" d="M134.92,61.23c.02.56-.37,1-.99,1-.55,0-.94-.45-.94-1s.41-1.02.97-1.02.95.45.95,1.02ZM133.19,72.75v-9h1.55v9h-1.55Z"/>
      <path class="cls-1" d="M139.2,61.18v2.58h2.22v1.25h-2.22v4.85c0,1.12.3,1.75,1.17,1.75.41,0,.71-.06.9-.11l.07,1.23c-.3.13-.78.22-1.38.22-.72,0-1.31-.24-1.68-.69-.44-.48-.6-1.28-.6-2.34v-4.91h-1.32v-1.25h1.32v-2.16l1.52-.43Z"/>
      <path class="cls-1" d="M142.96,71.08c.46.32,1.27.65,2.05.65,1.13,0,1.66-.59,1.66-1.34,0-.78-.44-1.21-1.59-1.65-1.54-.58-2.26-1.47-2.26-2.55,0-1.45,1.11-2.64,2.95-2.64.87,0,1.62.26,2.1.56l-.39,1.19c-.34-.22-.95-.52-1.75-.52-.92,0-1.43.56-1.43,1.23,0,.74.51,1.08,1.62,1.52,1.48.59,2.24,1.38,2.24,2.71,0,1.58-1.17,2.69-3.2,2.69-.94,0-1.8-.24-2.4-.61l.39-1.25Z"/>
    </g>
  </g>
</svg>