<?xml version="1.0" encoding="UTF-8"?>
<svg id="_Слой_1" data-name=" Слой 1" xmlns="http://www.w3.org/2000/svg" viewBox="0 0 146.82 55.75">
  <defs>
    <style>
      .cls-1 {
        fill: #65c1ce;
        stroke-width: 0px;
      }
    </style>
  </defs>
  <path class="cls-1" d="M4.35,42.97v-5.63h2.56c1.62,0,2.67-.21,3.12-.62.46-.42.69-1.45.69-3.1V9.35c0-1.67-.23-2.7-.69-3.11s-1.5-.61-3.12-.61h-2.56V0h24.7v5.63h-2.56c-1.64,0-2.7.21-3.17.64s-.7,1.45-.7,3.08v24.27c0,1.63.23,2.65.7,3.08.47.43,1.52.64,3.17.64h2.56v5.63H4.35Z"/>
  <path class="cls-1" d="M44.46,42.97l-8.16-30.36c-.81-3.02-1.58-4.93-2.31-5.72-.73-.79-1.8-1.27-3.2-1.44V.01h18.85v5.44h-.3c-1.1,0-1.92.15-2.48.44s-.84.72-.84,1.28c0,.25.05.61.15,1.09.1.48.28,1.17.55,2.06l5.73,21.83,5.73-19.01c-.55-3.04-1.23-5.09-2.04-6.13-.81-1.04-2.04-1.56-3.69-1.56V.01h19.58v5.41c-.18,0-.38,0-.58-.02-.2-.01-.49-.02-.85-.02-1.08,0-1.81.16-2.21.47s-.59.88-.59,1.69c0,.23.02.5.06.8s.1.62.18.95l5.54,22.86,5.82-22.67c.12-.46.21-.84.27-1.16.06-.31.09-.57.09-.78,0-.77-.32-1.31-.94-1.63-.63-.31-1.77-.47-3.41-.47V0h15.32v5.44c-1.38.06-2.45.45-3.2,1.16s-1.36,1.99-1.83,3.85l-8.38,32.52h-11.15l-4.99-18.26-5.12,18.26s-11.6,0-11.6,0Z"/>
  <path class="cls-1" d="M92.37,42.97v-5.63h2.32c1.62,0,2.67-.21,3.12-.62.46-.42.69-1.45.69-3.1V9.35c0-1.67-.23-2.7-.69-3.11s-1.5-.61-3.12-.61h-2.32V0h22.9v5.63h-1.46c-1.64,0-2.7.21-3.17.64s-.7,1.45-.7,3.08v11.32l13.98-12.41c.32-.29.56-.57.72-.83.15-.26.23-.52.23-.77,0-.35-.19-.61-.56-.78-.38-.17-.96-.25-1.75-.25h-2.92V0h20.89v5.63h-2.01c-1.52,0-3.64,1.19-6.37,3.56l-.06.03-7.22,6.47,11.36,18.89c.61,1.02,1.2,1.74,1.77,2.14.57.41,1.25.61,2.04.61h1.8v5.63h-22.57v-5.63h1.8c1.04,0,1.77-.1,2.21-.3s.66-.53.66-.98c0-.17-.03-.33-.09-.5s-.19-.43-.4-.78l-6.85-11.66-6.64,5.82v4.69c0,1.63.23,2.65.7,3.08.47.43,1.52.64,3.17.64h1.46v5.63h-22.92Z"/>
</svg>